<svg id="visual" viewBox="0 0 900 600" width="900" height="600" xmlns="http://www.w3.org/2000/svg" xmlns:xlink="http://www.w3.org/1999/xlink" version="1.1"><rect x="0" y="0" width="900" height="600" fill="#222527"></rect><defs><linearGradient id="grad1_0" x1="33.3%" y1="0%" x2="100%" y2="100%"><stop offset="20%" stop-color="#b2c6ef" stop-opacity="1"></stop><stop offset="80%" stop-color="#b2c6ef" stop-opacity="1"></stop></linearGradient></defs><defs><linearGradient id="grad1_1" x1="33.3%" y1="0%" x2="100%" y2="100%"><stop offset="20%" stop-color="#b2c6ef" stop-opacity="1"></stop><stop offset="80%" stop-color="#607284" stop-opacity="1"></stop></linearGradient></defs><defs><linearGradient id="grad1_2" x1="33.3%" y1="0%" x2="100%" y2="100%"><stop offset="20%" stop-color="#222527" stop-opacity="1"></stop><stop offset="80%" stop-color="#607284" stop-opacity="1"></stop></linearGradient></defs><defs><linearGradient id="grad2_0" x1="0%" y1="0%" x2="66.7%" y2="100%"><stop offset="20%" stop-color="#b2c6ef" stop-opacity="1"></stop><stop offset="80%" stop-color="#b2c6ef" stop-opacity="1"></stop></linearGradient></defs><defs><linearGradient id="grad2_1" x1="0%" y1="0%" x2="66.7%" y2="100%"><stop offset="20%" stop-color="#607284" stop-opacity="1"></stop><stop offset="80%" stop-color="#b2c6ef" stop-opacity="1"></stop></linearGradient></defs><defs><linearGradient id="grad2_2" x1="0%" y1="0%" x2="66.7%" y2="100%"><stop offset="20%" stop-color="#607284" stop-opacity="1"></stop><stop offset="80%" stop-color="#222527" stop-opacity="1"></stop></linearGradient></defs><g transform="translate(900, 0)"><path d="M0 324.5C-33.9 322.2 -67.8 320 -100.3 308.6C-132.8 297.3 -164 276.8 -179.9 247.6C-195.8 218.3 -196.4 180.3 -212.8 154.6C-229.1 128.9 -261.2 115.5 -282.5 91.8C-303.7 68.1 -314.1 34 -324.5 0L0 0Z" fill="#3f4a53"></path><path d="M0 216.3C-22.6 214.8 -45.2 213.3 -66.9 205.7C-88.5 198.2 -109.3 184.5 -119.9 165C-130.5 145.5 -130.9 120.2 -141.8 103.1C-152.8 85.9 -174.1 77 -188.3 61.2C-202.5 45.4 -209.4 22.7 -216.3 0L0 0Z" fill="#869bb8"></path><path d="M0 108.2C-11.3 107.4 -22.6 106.7 -33.4 102.9C-44.3 99.1 -54.7 92.3 -60 82.5C-65.3 72.8 -65.5 60.1 -70.9 51.5C-76.4 43 -87.1 38.5 -94.2 30.6C-101.2 22.7 -104.7 11.3 -108.2 0L0 0Z" fill="#b2c6ef"></path></g><g transform="translate(0, 600)"><path d="M0 -324.5C30.5 -314.2 61.1 -303.9 96.7 -297.7C132.4 -291.5 173.2 -289.3 190.7 -262.5C208.3 -235.8 202.6 -184.4 208.7 -151.6C214.8 -118.9 232.7 -104.7 253.9 -82.5C275.2 -60.3 299.8 -30.2 324.5 0L0 0Z" fill="#3f4a53"></path><path d="M0 -216.3C20.4 -209.5 40.7 -202.6 64.5 -198.5C88.3 -194.3 115.4 -192.9 127.2 -175C138.9 -157.2 135.1 -122.9 139.2 -101.1C143.2 -79.3 155.1 -69.8 169.3 -55C183.5 -40.2 199.9 -20.1 216.3 0L0 0Z" fill="#869bb8"></path><path d="M0 -108.2C10.2 -104.7 20.4 -101.3 32.2 -99.2C44.1 -97.2 57.7 -96.4 63.6 -87.5C69.4 -78.6 67.5 -61.5 69.6 -50.5C71.6 -39.6 77.6 -34.9 84.6 -27.5C91.7 -20.1 99.9 -10.1 108.2 0L0 0Z" fill="#b2c6ef"></path></g></svg>